<mxfile host="app.diagrams.net" agent="Mozilla/5.0 (Windows NT 10.0; Win64; x64) AppleWebKit/537.36 (KHTML, like Gecko) Chrome/131.0.0.0 Safari/537.36 Edg/131.0.0.0" version="24.9.1">
  <diagram name="Gestión de Inventarios y Pedidos" id="bsqmajJ0gOaqL7FdRkz_">
    <mxGraphModel dx="1585" dy="853" grid="1" gridSize="10" guides="1" tooltips="1" connect="1" arrows="1" fold="1" page="1" pageScale="1" pageWidth="850" pageHeight="1100" math="0" shadow="0">
      <root>
        <mxCell id="0" />
        <mxCell id="1" parent="0" />
        <mxCell id="BokNM98PBb7GK6-FKtIE-38" value="Inicio" style="ellipse;whiteSpace=wrap;html=1;aspect=fixed;rounded=1;fillColor=#00B0F0;strokeColor=#0075A9;" vertex="1" connectable="0" parent="1">
          <mxGeometry x="40" y="40" width="80" height="80" as="geometry" />
        </mxCell>
        <mxCell id="BokNM98PBb7GK6-FKtIE-39" value="Solicitud del Cliente" style="rounded=1;whiteSpace=wrap;html=1;fillColor=#F4CCCC;strokeColor=#9C0006;" vertex="1" connectable="0" parent="1">
          <mxGeometry x="40" y="160" width="120" height="60" as="geometry" />
        </mxCell>
        <mxCell id="BokNM98PBb7GK6-FKtIE-40" value="Verificar Disponibilidad de Stock" style="rounded=1;whiteSpace=wrap;html=1;fillColor=#F4CCCC;strokeColor=#9C0006;" vertex="1" connectable="0" parent="1">
          <mxGeometry x="40" y="280" width="180" height="60" as="geometry" />
        </mxCell>
        <mxCell id="BokNM98PBb7GK6-FKtIE-41" value="¿Stock disponible?" style="rhombus;whiteSpace=wrap;html=1;fillColor=#F1C232;strokeColor=#9C6500;" vertex="1" connectable="0" parent="1">
          <mxGeometry x="40" y="400" width="100" height="100" as="geometry" />
        </mxCell>
        <mxCell id="BokNM98PBb7GK6-FKtIE-42" value="Sí" style="rounded=1;whiteSpace=wrap;html=1;fillColor=#92D050;strokeColor=#4D9B2A;" vertex="1" connectable="0" parent="1">
          <mxGeometry x="190" y="550" width="60" height="40" as="geometry" />
        </mxCell>
        <mxCell id="BokNM98PBb7GK6-FKtIE-43" value="No" style="rounded=1;whiteSpace=wrap;html=1;fillColor=#EAD1DC;strokeColor=#8E3B46;" vertex="1" connectable="0" parent="1">
          <mxGeometry x="340" y="550" width="60" height="40" as="geometry" />
        </mxCell>
        <mxCell id="BokNM98PBb7GK6-FKtIE-44" value="Actualizar Inventario" style="rounded=1;whiteSpace=wrap;html=1;fillColor=#F4CCCC;strokeColor=#9C0006;" vertex="1" connectable="0" parent="1">
          <mxGeometry x="40" y="660" width="180" height="60" as="geometry" />
        </mxCell>
        <mxCell id="BokNM98PBb7GK6-FKtIE-45" value="Generar Reporte de Productos Disponibles" style="rounded=1;whiteSpace=wrap;html=1;fillColor=#F4CCCC;strokeColor=#9C0006;" vertex="1" connectable="0" parent="1">
          <mxGeometry x="40" y="780" width="180" height="60" as="geometry" />
        </mxCell>
        <mxCell id="BokNM98PBb7GK6-FKtIE-46" value="Fin" style="ellipse;whiteSpace=wrap;html=1;aspect=fixed;rounded=1;fillColor=#00B0F0;strokeColor=#0075A9;" vertex="1" connectable="0" parent="1">
          <mxGeometry x="40" y="900" width="80" height="80" as="geometry" />
        </mxCell>
        <mxCell id="BokNM98PBb7GK6-FKtIE-47" style="edgeStyle=orthogonalEdgeStyle;rounded=0;orthogonalLoop=1;jettySize=auto;html=1;exitX=0.5;exitY=0;exitDx=0;exitDy=0" edge="1" parent="1" source="BokNM98PBb7GK6-FKtIE-38" target="BokNM98PBb7GK6-FKtIE-39">
          <mxGeometry relative="1" as="geometry" />
        </mxCell>
        <mxCell id="BokNM98PBb7GK6-FKtIE-48" style="edgeStyle=orthogonalEdgeStyle;rounded=0;orthogonalLoop=1;jettySize=auto;html=1;exitX=0.5;exitY=0;exitDx=0;exitDy=0" edge="1" parent="1" source="BokNM98PBb7GK6-FKtIE-39" target="BokNM98PBb7GK6-FKtIE-40">
          <mxGeometry relative="1" as="geometry" />
        </mxCell>
        <mxCell id="BokNM98PBb7GK6-FKtIE-49" style="edgeStyle=orthogonalEdgeStyle;rounded=0;orthogonalLoop=1;jettySize=auto;html=1;exitX=0.5;exitY=0;exitDx=0;exitDy=0" edge="1" parent="1" source="BokNM98PBb7GK6-FKtIE-40" target="BokNM98PBb7GK6-FKtIE-41">
          <mxGeometry relative="1" as="geometry" />
        </mxCell>
        <mxCell id="BokNM98PBb7GK6-FKtIE-50" style="edgeStyle=orthogonalEdgeStyle;rounded=0;orthogonalLoop=1;jettySize=auto;html=1;exitX=0.5;exitY=0;exitDx=0;exitDy=0" edge="1" parent="1" source="BokNM98PBb7GK6-FKtIE-41" target="BokNM98PBb7GK6-FKtIE-42">
          <mxGeometry relative="1" as="geometry" />
        </mxCell>
        <mxCell id="BokNM98PBb7GK6-FKtIE-51" style="edgeStyle=orthogonalEdgeStyle;rounded=0;orthogonalLoop=1;jettySize=auto;html=1;exitX=0.5;exitY=0;exitDx=0;exitDy=0" edge="1" parent="1" source="BokNM98PBb7GK6-FKtIE-41" target="BokNM98PBb7GK6-FKtIE-43">
          <mxGeometry relative="1" as="geometry" />
        </mxCell>
        <mxCell id="BokNM98PBb7GK6-FKtIE-52" style="edgeStyle=orthogonalEdgeStyle;rounded=0;orthogonalLoop=1;jettySize=auto;html=1;exitX=0.5;exitY=0;exitDx=0;exitDy=0" edge="1" parent="1" source="BokNM98PBb7GK6-FKtIE-42" target="BokNM98PBb7GK6-FKtIE-44">
          <mxGeometry relative="1" as="geometry" />
        </mxCell>
        <mxCell id="BokNM98PBb7GK6-FKtIE-53" style="edgeStyle=orthogonalEdgeStyle;rounded=0;orthogonalLoop=1;jettySize=auto;html=1;exitX=0.5;exitY=0;exitDx=0;exitDy=0" edge="1" parent="1" source="BokNM98PBb7GK6-FKtIE-43" target="BokNM98PBb7GK6-FKtIE-44">
          <mxGeometry relative="1" as="geometry" />
        </mxCell>
        <mxCell id="BokNM98PBb7GK6-FKtIE-54" style="edgeStyle=orthogonalEdgeStyle;rounded=0;orthogonalLoop=1;jettySize=auto;html=1;exitX=0.5;exitY=0;exitDx=0;exitDy=0" edge="1" parent="1" source="BokNM98PBb7GK6-FKtIE-44" target="BokNM98PBb7GK6-FKtIE-45">
          <mxGeometry relative="1" as="geometry" />
        </mxCell>
        <mxCell id="BokNM98PBb7GK6-FKtIE-55" style="edgeStyle=orthogonalEdgeStyle;rounded=0;orthogonalLoop=1;jettySize=auto;html=1;exitX=0.5;exitY=0;exitDx=0;exitDy=0" edge="1" parent="1" source="BokNM98PBb7GK6-FKtIE-45" target="BokNM98PBb7GK6-FKtIE-46">
          <mxGeometry relative="1" as="geometry" />
        </mxCell>
      </root>
    </mxGraphModel>
  </diagram>
</mxfile>
